# xmcd CD database file
#
# Track frame offsets:
#	150
#	18151
#	47441
#	73231
#	93866
#	120704
#	139732
#	165565
#	184744
#	208006
#
# Disc length: 3108 seconds
#
# Revision: 1
# Processed by: cddbd v1.5.1PL2 Copyright (c) Steve Scherf et al.
# Submitted via: CDex 1.51
#
DISCID=830c220a
DTITLE=Dave Miller - Ayurveda
DYEAR=1900
DGENRE=New Age
TTITLE0=Morgenstimmung
TTITLE1=Reise mit den Wolken
TTITLE2=Wächterfiguren von Rano Kann
TTITLE3=Am Fels der Stille
TTITLE4=An den Quellen des Ganges
TTITLE5=Echo der Stille
TTITLE6=Verborgenes Land (Bä Yül)
TTITLE7=Futurama
TTITLE8=Reinheit der Lotusblüte
TTITLE9=Harmonie
EXTD=
EXTT0=
EXTT1=
EXTT2=
EXTT3=
EXTT4=
EXTT5=
EXTT6=
EXTT7=
EXTT8=
EXTT9=
PLAYORDER=
